<svg xmlns="http://www.w3.org/2000/svg" viewBox="0 0 64 64">
  <rect width="64" height="64" rx="16" fill="#0f4d40"/>
  <path d="M17 19.5A7.5 7.5 0 0 1 24.5 12h15A7.5 7.5 0 0 1 47 19.5v15A7.5 7.5 0 0 1 39.5 42H35l-9.5 8.2A2.2 2.2 0 0 1 22 48.5V42A7.5 7.5 0 0 1 17 34.9V19.5Z" fill="#effbf6"/>
  <path d="M25 30v-6m7 11V20m7 10v-6" stroke="#0f4d40" stroke-width="4" stroke-linecap="round"/>
  <path d="M25 52h14" stroke="#b9e8d9" stroke-width="4" stroke-linecap="round"/>
  <path d="M39 47v10" stroke="#b9e8d9" stroke-width="4" stroke-linecap="round"/>
</svg>
